<mxfile host="Electron" modified="2024-04-07T16:45:30.461Z" agent="Mozilla/5.0 (Windows NT 10.0; Win64; x64) AppleWebKit/537.36 (KHTML, like Gecko) draw.io/24.1.0 Chrome/120.0.6099.109 Electron/28.1.0 Safari/537.36" etag="6qfEtuqCnje71P_HyB9x" version="24.1.0" type="device">
  <diagram name="Pagina-1" id="EHbZyzsMTMYF36vkC1-x">
    <mxGraphModel dx="1674" dy="836" grid="1" gridSize="10" guides="1" tooltips="1" connect="1" arrows="1" fold="1" page="1" pageScale="1" pageWidth="827" pageHeight="1169" math="0" shadow="0">
      <root>
        <mxCell id="0" />
        <mxCell id="1" parent="0" />
        <mxCell id="MLm6s_UeEW4FJjLo-dCS-1" value="" style="sketch=0;outlineConnect=0;fontColor=#232F3E;gradientColor=none;fillColor=#7AA116;strokeColor=none;dashed=0;verticalLabelPosition=bottom;verticalAlign=top;align=center;html=1;fontSize=12;fontStyle=0;aspect=fixed;pointerEvents=1;shape=mxgraph.aws4.iot_greengrass_component_machine_learning;" parent="1" vertex="1">
          <mxGeometry x="515" y="518.3" width="108" height="108" as="geometry" />
        </mxCell>
        <mxCell id="MLm6s_UeEW4FJjLo-dCS-3" value="" style="endArrow=classic;html=1;rounded=0;" parent="1" edge="1">
          <mxGeometry width="50" height="50" relative="1" as="geometry">
            <mxPoint x="500" y="584" as="sourcePoint" />
            <mxPoint x="300" y="584" as="targetPoint" />
          </mxGeometry>
        </mxCell>
        <mxCell id="MLm6s_UeEW4FJjLo-dCS-5" value="&lt;font style=&quot;font-size: 16px;&quot;&gt;Query SQL&lt;/font&gt;" style="text;html=1;align=center;verticalAlign=middle;resizable=0;points=[];autosize=1;strokeColor=none;fillColor=none;" parent="1" vertex="1">
          <mxGeometry x="355" y="585" width="100" height="30" as="geometry" />
        </mxCell>
        <mxCell id="MLm6s_UeEW4FJjLo-dCS-6" value="" style="endArrow=classic;html=1;rounded=0;" parent="1" edge="1">
          <mxGeometry width="50" height="50" relative="1" as="geometry">
            <mxPoint x="300" y="550" as="sourcePoint" />
            <mxPoint x="500" y="550" as="targetPoint" />
          </mxGeometry>
        </mxCell>
        <mxCell id="MLm6s_UeEW4FJjLo-dCS-7" value="&lt;font style=&quot;font-size: 16px;&quot;&gt;Invio dati&lt;/font&gt;" style="text;html=1;align=center;verticalAlign=middle;resizable=0;points=[];autosize=1;strokeColor=none;fillColor=none;" parent="1" vertex="1">
          <mxGeometry x="360" y="518" width="90" height="30" as="geometry" />
        </mxCell>
        <mxCell id="MLm6s_UeEW4FJjLo-dCS-8" value="&lt;font style=&quot;font-size: 16px;&quot;&gt;Training modello&lt;/font&gt;&lt;div&gt;&lt;br&gt;&lt;/div&gt;" style="text;html=1;align=center;verticalAlign=middle;resizable=0;points=[];autosize=1;strokeColor=none;fillColor=none;" parent="1" vertex="1">
          <mxGeometry x="630" y="585" width="140" height="50" as="geometry" />
        </mxCell>
        <mxCell id="MLm6s_UeEW4FJjLo-dCS-9" value="" style="shape=image;verticalLabelPosition=bottom;labelBackgroundColor=default;verticalAlign=top;aspect=fixed;imageAspect=0;image=data:image/png,iVBORw0KGgoAAAANSUhEUgAAAOIAAADfCAMAAADcKv+WAAAAwFBMVEX///9b5v8Ef9pGUVQAetmHt+k5Rkk/S04Ad9hATE8zQURDT1Lx+f0UhdwAddjf7vrR09RV0fcwPkLx8vK0t7jj5OVM5P9nb3GxtbaZnZ/c3t/BxMWPlZbLzc1ze3xZYmWhpaZd6v+AhoiIjpB2fH7W+P8kNTlMV1rh4+Pq+/976v+a7v+89P/e+f9faGtrc3Wq8f8VKi/D9f+H7P8hkN941veB4/tMzfUwn+RV2Pk9sutMxfIplOA2pudGuu6u9P9r3+8fAAANsklEQVR4nO2bDZ+bNhKH2ZKTAkpyrsBrMLbB9tY4aYu7ba9tmmv7/b/VzSAJC2Mj/Iqd0//XZje8iHn0MhpJE8e5tt69/aZN769uwPVlES3iQ8giWsSHkEW0iA8hi2gRH0IW0SI+hCyiRXwIWUSL+BCyiBbxIWQRLeJDyCJaxIeQRbSIDyGLaBEfQhbRIj6ELKJFfAhZxK8C8cPbNn3Tt30X0I+/f9um//Rt3/n6+DRv0dO8b/vO17unVj1/7NvA82Ug/K5v+87Xp3bCH/q273z98txK+H3f9p2v71sJnz71bd/5+qmd8Klv+87Xz+2EX4Ez/c5AuONMPz4e8Y8Gwl1n+vT0rhc7T9fH9mHYcKafHm9sthM2nGnpex/Lw7ZP+Y0G+6Hs1c+/9GLraTIQ7jpT5ZkeKBZoD2qazrR6/Pmnfgw+WoagZo8zPXzvPmUIavY60+3dn3ux+TgZgpr9zlRj/LEXq4+RIag54Ex1xnsPcwxBzUFnquu+wxxDUNN0pl0a+r5kImxxppruOcwxTfmtzlR77n7DHFPYZnCmLXVxLzIENWZnqjHeZ5hjCGo6OdPtw/cYAph2ag5Hpp0evwOZgpqOzlR74d7CHFNQ09WZ6q/cV5hjCmq6O1Nd9xTmGMbV0zHOtOWtPmUytdHnTIGe1P2EOUbCpnfsxng3YY7Jc+xdypv7dvnqfYQ5pqDmgJlGDyVevocwx+gbDw2ojoz97+aYfePBV40bBIKx7zDHFNS0TuAdGfsNc4xGtreBsYKMtXR1GYeTaSR1Y+wxzDFknHTx+fce5hgt6xCdmNZgnQu6isyLhS6ldGLsKcwxEnZ0E90Y+whzjFN+5wmt08KqhzDHWPdHhCXfd0C8fZhj9Pbz3/7dXb/NuzDeOAQwzYjzzx+O0e8dGJ9vPTuaDGrNlm7ozbcdGG9M6PzS3oi/vrk44839TWtYMv/jSEJg/GxgvP2Ko23VPv+zPat/vwyMz7cmbBuM8y+nEJoYe4jhDk5m889H91Kh908tjH3scByeGU8DNDD2sTB+dwDxaGe61Zv3h1uxl/XU/jD8BGfaibGXpcZPewlPcqZbxl/nB/ppLxtx+/Zt5l8+nEMIjP/dz9jT/k0T8WRnambshXDfYDwXEBn/2MfY08Z/c8l4ujM1MPZ19L+7oDrLmWp6+1eD8eYLKaUdwvOcaTtjT4T1BdWpkelexj93GHs7g9MXVPPPlyNsMPZ3dFNbUF0QEBn/1hl7WEgpaY14EWd6iLHHM/9qQTX/68KEwPilYuzzqFgtqOZ/X3IgNhj7PGGUg3H++xUIgVFtPfY4FOVgvEBk2s7Ya2qKGIzvr0Ooth77zWjABdXFnanOiFtWPef7PV/DmepCxl4JnU9XcaaaoB17zqD658uHN1fV2zefe86h/viv6+ue0lKtrKysrKysrKysrKysrKysrKysrKz6URhF0e61YHx8OQHqEgZ1LPuI7xU+4TuXxpz762OtWHHOiyNf6qj1K5S9ymrXQvzeazfGkeeSnUsb6tKXI80Iieu6fHjkW9009KFs5taupQyu+ScjLohLlkeaAcUwl2RHvtVNJaLrT7VLY3HpZMQgJZsjh9WQu6xgOzV9KSFi7np6x1pSuHIG4gnKqOslxPUH5xfVFCB6C08HCnyX1q+06TKILqNL/O6x/buTAJFGVB8GEWGjmN4UceDjUNnoRU11gRtKwjBRT4dhiMYFcAc8d7JcyElqOpmNFlHDbkAk043H8upKykiy3CIG4aJIi0Wov5lgWfFAQwyXm6UqfAifDqSZ8EyQLUbLUAeKX0aLTPeeC+inpVclCiN4JVutYObNfULlvSUnKyx/sCIwFYx86pcz8zj3KfUoIbvzdImoDwNwNsSpOmqw4IR6jFFCq3ESUZ96nkd5rBDHLikLF04rgk/jb8HK5y9OxAk861dzXjDipSXl2/KS6KIBd72RurSiQqXnG2PFV62g6h8tjZbEE4gJZ8xnLvzHsyZi4sBMtqhqFH6dKcSEewTqD15kqlln4KDKi0QiemNOfB8mNlZWbtkaJSJxvWWE98BQIh3amEOd0JzQ6kr5QlnDs60HCCZxqQwdHxLsR/QmxN8sC2Bag0/OoZBhCoXU51eBCGOPBKpG4XNbxFWRDINgXHjKFyyBxd8kg2lGJgLRzXk8GGdATuMdRDcleTgewEzp8nLABDAz+NBrAyjGV72yYNhP4WOkMTVOiUtnThNxKBChrmXngvtMEECXW9TKEIj4p+jC4GxSrT4TZQY0Yy6a1a1sm0pE8Xcgw1friNIuGGx0In+Rc/BLNf7R45U34QXNJ6grwvL9rVhVydSvxnFG3HpIKRDBUlkCOJuo1mWkJlCuuO/WxjN2VFlpOROP6IhyiMNXGA4zHG7yaTDQHyub5G9YAbUQHnqdaP2DiNo1Z1twbX6ViMrhgPvGHruLGAyX8LFA2FqraEBUBS7EIzpi9WzOyhYONb8GTwk/61bWD4hsT1Wv2557YCyqLgnVy+JJKTCjcsw6IjqcpSOdTX3gh5NNTnzoj2g/ml9zyogof43lGNHdzcypWQjWeUthyYS5tDQfapWlCyHP1WfZKXfppl7ADiKVFeBgVC19MJaxF1E4HOhIdd8WvMCkAdMBOkVEzKT5OqIyCjvcLqLymtLCF/i+V00HwkDonS7zhFzdPOwFNKgXoBClu6m8U/mmr7Tai4g/Q3Q2ZUEVYg7kZBaHA6gCiVjv6MchzrCKK1PKqRFHrFfN8u624R3w4rz6VroN0vchwjqFimVuc62rENHhpNLZbBFjsvW0JWJ0XitiSDEMaqYk+BSEZ0JMdBZHfnsbHozkxALaeE1EMHh3Zd5ERIeD/wc6Ys5UZJyJVoQn6rHycYg4XHdWEziYt14UWkjW6VSLdZyyi8vHApy2dhGzXR+xD7HszspFKUReDWiYLBARy+d6PzgOceC7u/Myry3IS9/jOHJS1T6UVYXh2G0gBhh4qN2U8YGOijVczWNbRE+4tIhINIyYVeUOm4jrdsRy7lS+YLgWL9Ftdywrumytcr7FvS/UGAM/GMWjZDjY4IK9gYjdmvkZNsJ0+XoIEeqzmscUIk70E3C0MXclYkBgYOcJXJtuJscjTrGXTcDAYBCvBpJZn+0nIg6KcS9HeSGO8+eMiNCYjOI97gYMIehTKYXgmR9CLK3N6oghWATrCuKP5FiErgRxNCMEJ5LseERnIkqEIim6S1gQkdp2xhgugOPQ11ICMSh8XPHAkmUCiylEhHf1RUXMcUnEPMI3Tk1rWPlIxESuw0AbX/464RTLTYOsurkufFoWhcs4fZMRH8EGgcWFWEzBIkPNADkh0iFGPiktoTwFOwdRGNU8tANuFRaeUagpEoMseUnTRSLeKTsU/NR91zAepWkxy3b38YIkSdS1LFMr10SWArW62Jar3pkuizyfZSJOD6vr6tNj+IlFBtm2QLRUfTEDU9NNfMJ+spWVlZWVlZWVlZWVldUdKX5JzA/dTuvJZHJhg2bEW10ly+BEDTj1Y/Njx4i418qHOU24T3lhxCUn/Nh0r2vqCohOFF8nb+tEXQPxzvR/izgcD3f2h8frRgJO7cQqGDfuay/X710vj3Sv9iAGS8/3fTKrBlS4oRyupHL7c8ByN3SmeXnuWBTFi+NkLtx35eQTp0WODOu0SDMojcK9YrsHGuWE+yx2gtFsc+ho6KJqIiacMkoI87gwOSgzfajnMl/si099RsIBZ+W+P/No4eDOuusyLiyeEFbu9I85I9mQErznVSm1hY+PMlIMuUcmzg3UQEy4y0gcZrlKfRhyQjdx/ILZFFmJiGkFeCCyCsvMgs2Se6OUVGeZE3mYgSfrcernmxzPT1JJiElDNGdQJruRF9hFDPC4TpxoM2HWWjbOmMhzPUBkBSmScTItz5NZeTw9rDJgNURoPewKU18d0kWYFoLlDVzq9oSojsVFsiCaVfmGibwFiC5VJ4Z4ZL5Qz7NCPlchyiySmMqvUKYShQKvp1YMtGPrnNVNmMrEBESsksa0bGLM8sCfGqI6fcSEFzxVg+askg8i0g8ipk1FQZk/4BSsOuwLxtNoUrAK0asO5FyRAYSC++XBoT4WpT9RCTWYyKJOzta3mpF3EEMislE4iIkULSfICphDCPHcCnEbZgOiyqpUCbA1dyNuBVS04ou3PfcPekLEE3qVyUMpQesHMGlQ4nup1orbXAfXPQYRH7kDRG+RKcUZWoKn95j0q43FUxFHd4CYkJ10MEwTkP4kOR9xpmW3jntCXDeS5kdM+ZbofES4RdTxdl8etUwIqq1n08qf5OePxamWuenecl5crsdCmPoPRjC585JljpaOtSDu2YiOV0UKGBDeDNGlKk8Qe+SGQkS2ybLJxi9zVDIkW0DM6m/Ob8Uyi5qkWZi5fOndEFFJBB4FBNQwS1DPE2k4OQaThPiLyqP6pyM6MU63mPyzvJlHneI/1ZNaicAz8jjY4PNCOIZgBn/1YbJPXvkrhiZTTnmF6POVGlzFiq/w53Il/p3f+JWvVHSzUoU7SQ7FcVhwDv0+N+rW02SqrdSDJJy2PH2sxmGIg3vgH86W/EoUXevfrd2PYA46mNb7yNpOuUu6m0v7lSji8QCzXJNCX3R+VQoJTMLM82FiYqu7Or+6mMIV5pa6zKN++rX6mnW0LHI3fclOBPwf/EZo3W7SaRkAAAAASUVORK5CYII=;" parent="1" vertex="1">
          <mxGeometry x="515" y="760" width="106.26" height="104.86" as="geometry" />
        </mxCell>
        <mxCell id="MLm6s_UeEW4FJjLo-dCS-15" value="" style="endArrow=classic;html=1;rounded=0;" parent="1" edge="1">
          <mxGeometry width="50" height="50" relative="1" as="geometry">
            <mxPoint x="505" y="816" as="sourcePoint" />
            <mxPoint x="305" y="816.08" as="targetPoint" />
          </mxGeometry>
        </mxCell>
        <mxCell id="MLm6s_UeEW4FJjLo-dCS-16" value="&lt;font style=&quot;font-size: 16px;&quot;&gt;Deploy modello&lt;/font&gt;" style="text;html=1;align=center;verticalAlign=middle;resizable=0;points=[];autosize=1;strokeColor=none;fillColor=none;" parent="1" vertex="1">
          <mxGeometry x="345" y="780" width="130" height="30" as="geometry" />
        </mxCell>
        <mxCell id="MLm6s_UeEW4FJjLo-dCS-18" value="&lt;div&gt;&lt;font style=&quot;font-size: 16px;&quot;&gt;Cloud&lt;/font&gt;&lt;/div&gt;&lt;font size=&quot;3&quot;&gt;Web Service&lt;/font&gt;" style="ellipse;shape=cloud;whiteSpace=wrap;html=1;" parent="1" vertex="1">
          <mxGeometry x="100" y="744.86" width="190" height="120" as="geometry" />
        </mxCell>
        <mxCell id="MLm6s_UeEW4FJjLo-dCS-20" value="" style="sketch=0;outlineConnect=0;fontColor=#232F3E;gradientColor=none;fillColor=#232F3D;strokeColor=none;dashed=0;verticalLabelPosition=bottom;verticalAlign=top;align=center;html=1;fontSize=12;fontStyle=0;aspect=fixed;pointerEvents=1;shape=mxgraph.aws4.user;" parent="1" vertex="1">
          <mxGeometry x="499" y="910" width="70" height="70" as="geometry" />
        </mxCell>
        <mxCell id="MLm6s_UeEW4FJjLo-dCS-26" value="" style="shape=image;verticalLabelPosition=bottom;labelBackgroundColor=default;verticalAlign=top;aspect=fixed;imageAspect=0;image=data:image/png,iVBORw0KGgoAAAANSUhEUgAAATkAAAChCAMAAACLfThZAAABa1BMVEX////+/v7/uQIAAAA9PEHS0tL/3H/8/Pz+tgD8swD+ugL/3X0+PUD93Jn///3+2aP6uQvy8vL91Wv7xDPn5+f29vbS0dOTk5PZ2dmpqank5OTJyck9PT0qKirv7+/l5eVkZGS2trZ1dXW/v7+CgoJ/f3+Li4ttbW0NDQ1MTEyRkZGdnZ00NDSsrKygoKBVVVUbGxsAYAAfHx8mJSgAbABCQkJNTU0AcwBeXl4AZQDX0c02NToAWAD/9NT//fTP09v6uCfxwEX//u3/8t796M//57n+3Y/s9OyPt5GGuYSew6Lj8uSexpqKuI6zzq7P39X6zln5z4MiciLQ5880djNnl2zywkkAfwA3gy9wqXH+67tBeDpGfUgSaRzA1sH5ukjH47/qvWTnyoHgy6Xa0bvjzKTrxH7O0OHoyI+VtJvwvlvdz57U0sF9pH792Jrmxq/46asqLDhUUmCovat6qnRKj0lul3RZk16IoYQBaHQ9AAAZyklEQVR4nO2dj1/aWLbA7zWm8QdSoomEhEQgAiIBLCmKZUWqo3TaGTsdp51u963dTjs7M92dmc6+7ev++e+cexMEBY2BVuxyPi2Q5ObX13PPj3tPgNCJhBNy3RdwY4XcALluRv3luqkEketm1F+um0owuW5K/eS6mQST66bUT66bSTC5bkr95LqZBJPrptRPrptJMLluSv3kupkMJRNyYWVCLqxMyIWVCbmwMiEXVibkwsqEXFiZkAsrE3JhZUIurEzIhZUJubDyX0cuGvU/DHmgm0CONaTs36AWwCPg4XxyNHr6GkpuBDkJ2kqUNJvN/f0vDm4fenL74Isv9pvNKHBDGXi49oMHXz5sR9WHX3799SPS/OrrL+FNOvryy68fB7+IG0kOFKW5v3P71jf37y+1WnMzsygzsZmZ2Virdf/+2ye3d/ab0uC9j+9sb3/7mLa/vXP3T8fR9nfb29snRHoKSw+DaurNI0ehOzX3bz95thSLIbEplBmQKS5zc1Oweiq29OzJwU4Tm/c56vHd779/DuSeb21tH5P2d1tbWyek/eet7+9+9bmSo4Q2Xxy+bc1yWhwY/p+LxeZ8gHNADz7PzrYWF3aa2HPPHubRX+9u/+Uxkf+yvX0HyP3P3e2/ntC2p3NhwY0vOQRA9xfug67NcWJAZyYG0nr58uWzZ/DSwqXYjK99AG/p7cHeeXunHoOoVHp8fPy3Nm0ePz4+aVPp5MFXDx4P4d/HmFxz5wmwAZWai83NxJaWnr364efXr1+/efPPe1z++eb1jz/+/MMrRDjl9eDY24OmdPGB+StrRAe7lRtLLkqbh0tAA1RpJtZ6+/cff7+3vCyKuyDL7EUU2fvuT7vivXtvfkZ8QA8Zv9q/8I49clQiFzrkm0kO/cL+Yox3z9arn9/cA0QikLsnivgG//HVWwSBzfde//BsFkDHYrNLO5eHuVHy+JdffjkeIh4eV3I792en5rDz/XhPE3cZpz7iEUTh8JZYt229aF5m+qPk4Z2tO5+dh6DR/ZcxsPnATVwWHy93ARpIDj4s74pvXrXA3KHWXUruaHtr+/OL5/aeoIFb+sc9wOF1yP5Kdw6k+PvbGKB727wkr4qSr0DnvuoX/t1ocvuoOS9fgzPwLRlHF4Df7j/fQoDX2jkf1p0h9/jpr09PhnAR40nuBYCL/YOB6lG4IJq3+xqi5NjBxaEJRCUSOtchwpLxJLcwE5tq3dv1fGeQjtpFTrw/Mxf77YI81mPHgpLPzEOQhVkwcz/+JPb4AK51l3LcfdMKRE45Ojp69FmSm7r/Znk5EKsz4N5iNPPbpUiO/vQ55q0LGMzNtH70PERwbsvLr9G3zsVuX07u7tbdzy8qWeDDSa0nv9/bDeQWeLfeXX7z9xbkr+AhApDjkfBnSG6ODR+9eo356u7uZdxYDvH7qyU+bnI5ORr924cPH46GcRF9QXZ9GLFchRwOLc3GXj55jeQu1rzl5Xuv//4s5o14BiFHo+32VZ0rtJUG7eDdkmVBuHO95Ob4sBsbu1x69fPrNxCi7P70Ezd8uzw4xoGS3d3le29e//yqFUPUc0HJcWR0IIjeSyZGGn01TRskXR7cwymx82XCyJGPAO9q5Dx8c7OtZ69++OHH17/f65Y3v+P4HBtqn2GUZ9h+Qexc9NHRydGjoORWBR24WBs5IopejE35pBy/De/vQOqipKxLxDK0IEe+ooQgx7TJGxBu3T+VFh8VjiGvGRydi7ViXO8u761+VBKMXM7JEYnEnXWiWJTotq0qK6IGHwyLwKtIiWLbFtGSaT2dNKxSLrEyRMAz+EICkZub6yLHlzoTN1Mzp7M4OInDRttjrWeLh0uzfGg4SFTy/XagGRymc+WCQqzNco4Ui8SurWa0RDKftpO5/KaqFXI5YtRymYJVXsuXMhtZI71u66PvrqMmh510rtVa+mZxfv7WrSVcHTgqCUwua8eLpLRur5J4WS0YsK5coWrNICRTStcJUSvwcTVOCjrRKxK102n1ksQ5hITorf1lZioWm4MOuvTsm8XFW1zmg5N7/PTp05MgvpWRS+s1eVNPIzm9pkoSSUDHdVRKShm1XhGtpKVSO09qOtEKKqXqx3CvIyMHffLZ4uLi/K1uCU5OtVS1HWSUiZErkUw+T9JZEi8qjgVrgJzlKIQUwQDapl7QAeIqJyd9DMdKRktu8fDwcH4+HDmvpuLyiQi80EyCiILByQFDMa2AySPZumgndTFtmFaxbthJjcA/xbGt6yU3dzm72OKtsxKcXJQNNAW7YJJeJnJJpstpYtjEiuezFrxTtZjPiETMZ2yiljPwKhUBWikv9pjPkaUUH4Pcqd4FJ3e1C8aBUF5PhdGzxN45dolvhnUYA2O7kaHqdyEj6a0zvTrH8I2cHKU+GUUTRV0mHCN6TnUFEhoNSPF8i0qqqkrdyRd7p5YmarDf8KHxTSQHOOx6VRCENWcdEysEp2WTG7imtq57VOS6k+VM/X3hs5hysZWZVYdWxJtIjqgZAe8f/hcklmspq4K/RnATlCUMqiOkpG7VAsLrrBU027CGVrrR2blPQo5dsASckmlRE9OpTRXBrdSARdYWwbGmAE2c3YycFPI9t0VJWRCcoqhpdsb9ryQHEYlQsPgSpvJUrghCRfe2G44gFLEVkEv13pZVFTDmY/v91/VWRq4oCLZfdIuXDX2wYhE+liQRzRTWNK5zqd50zuZML7jh03Xdn2jPclfjEZOb/7jkoNPlBEE7vW6ibAiO5Y8xwRsAyhC/t3bvWRKE9Nn7VRVLPg3ywIeoMpun6/Ys7KOsKLKPkUVE6o0jR0ic6Ry/ZlAysF5lL+Rgq6SaYK70I5c+1TkPgVKuOE5tVSPohNOr65Ja3KyVjeyqJnnznOlsDtJhoscLplPIrbDwMZEtS8p6TSKByI2NnSNMqeqqryeU1oWqcqoMHKXdj9zKmpC0iL8b5TaRedsE+F2SBdXNw1IG7GiccHKqKdRB/dJV3rCK4zJSSqgo4JPUm0YObgccaMpHAJm+UD+9fiRnCMI6tDpHDtgIFe10VsfYENaKhpEAfgaOIwiFdaFeXF0H5jWV7wmHSkMGJwgmNIxX0YJKSC4jpMrSDfMQeN863KuTpizVItqGsIrpV4cc1dbQ0J3XOaKAE95IqJwdsZKCaeBqOBzoMJCrrsVBkWR0QWwD0nRUqlSFAg7fE7Eq5AmS21gr0VF7iPlPQY7odeg6dYNP56D16tosUX0DmPUhR6mFIXTN5gNPZeSDGQi6DoNpZJ5na3CADGsPzOLokTY0NhOEvklHckJu9FHJxyfH1EotQq61VlTBHNnnyCmoGn3JgXVH05ZlrrguVLwNK1UhwcjZfKqMpgRHRucDPkVn3d5raLAmQE6jUlByQe3cJyDH44QVVJ+6xeLieO82rjL9yIF+yTlIvmoKkWTQTI3PDxsmdHggt6afBjYMYgqZiWvCqsZnmNPoxoGcY3WDu1HkMK6wTfCDKtWYhnWun3osaR87x9SVLifBUchUF7olg+RM32PLJqyQsInNAuguWUdyFZUGJjdGvdUfMUHLDvYJCCXVHnJpZrZ49tVnR2JtYgfXwFuYvlSZzjmdWGdVMGVKEugfkFz1tGGRkZPIDSZHmYnLUJJBUNIpOVoRTIWTOzfjxSI5As63IimCsKpaTGTZklk81ynzEzHdUDdZXAdnKat+O8uinNxN9BA+BEnSXaHCdCIldV2/wXj21Tm+I1UL4AFktIa83/NB5m5yUh12FtGnUgxy1jt1A5THc1cgN4ydC1I/dwXhI+QsrquiKZMq2PnYjCO6AKuAro96Otd1c3DbkvehICQlkhJMq7OZRcIdchQClTVlFaIUHFtOCoXu3vnpyAWa478KubRGeLFDiWWs6PyEhH/TGO3mcPhXPg0mvDDZNrxFkXmEBI7k8U2qLvWQYyNSpRqP93AspuSd0VKuTO6qvXW+i9zM1FXJXXBRqBxrORGMjpLYwPE27hKEVFqRVVmLo8NlfRfIVQxPNHakhJCxdVlV0syzSDLknqsKJg1GPU56dY7SjFBbY54HXKwprMUtiUiWXQOEH9dDcHA+uZkrkrvooli3EtaSmwVgtGZzfWIZuVMosLmIVdkfTe9Ilo0agZIJZmET1yfQsBkuLKcy+QIbQ+khJ1GMReJ80I/FJQ40rKHfuGJUEkCQ3Dx20oUXTN4dIjkGbjC5AWe9mJxdWeNAUoYfRehZl68y84Z3VDBPa55gYgurtJQ35FHAMBfQaSlvCCSrsz9I7ZQcaiTzDzzDq3hHzylswKF+hXguqJ073NlTJYkVwDR33i3NTmEJ4kA7p2aK/SKuCy8KZ3C0dDy3XhL9PoOrdbu4brJAzvOzktYRUSHeKru4up4QVcKnE4kklnO5uL3CjqOLmn86dCa6pnmjwdj1DWhYttlYPDTUL7vIq5ObP9xpqqVMPp+Jp+HGdhbZw8SDyKlZ101clRyb/aOdm/IaoWMlxpqQ1Il0vm6JniLxp7cpGxbtrKd80I4MWCbeKbrWjNzOHb6I7v7hNv74w/0jX5Kit1uMXN8nSay8G4m48a7vezmPrh+5c+KtZhk6+Ay/jPN0/64wubMP7SyS85MN507PQr6e6wlILqCdYy5iJ7pbMyPT09MNN6ORg9bUAHJyxoxAMxdjsYHn7ifUezmflOLIWkG5qD7Th9q9dGZj53C9S2cZjZwcah3RCwzdtOva0Z3WVF9ySsplbaY3cupoalHxHlZB61ZGcbB+R+/HclR2jsnhTlSrmdPTAKbxh00OYkDu3NGtlBPh5CLu+ujQyblMPnF5y9GcbJTkWBiHtm6lwjWqYS43F2dvR88+GqynQCs5OUDnhWCjuBtyrg9+JBkVubnWKTmQF03lX7zDNiryTuu3s1WFKxUzyTbzFzdjjQwdHS9ylypc62Cxq35ufv5FVKk3OJVE89Zv0d66Qr1iel3VEzevjOp+RnOcIGcaCbnZb/b2nnSTm9+J5lwGpfGv6Be3mz06pxXOgIs0Gsuf4m5HKSPqrbOHUTX6rmuYZH4PdM6jYzQPenqrXmj0gptuROxP1MdGJyMiF3sh55W9dzzhR3ILTRv0iocmxeYX3Ron1hrT0z3kGjVj4MnHVkZErrWvb2TUvXcdnbsdTbg+udXofue7DSnRas50r9xIcKOyc0t7WqOaV/wOO7+4Q/NOkrnPiJmNNk8HW+1Io5dbxNkMZ+PU9Xh8nTNXi52Pn1JGQa61JzYiZl5mWgc6d7hjmX7IYWabe35uSZbNs+DMghbOxils3IeVENp8EO5Tm8qR9NY9vdGYdlNW892tw8MXO3vEcH000Fs7X0NnO2fATTcK+lXzVk8YOVaDSNjwWY7djH9LfQLii9JZ6r9S2mnadazzO3gPEAQhdyG62I6FTNyUsrez14yqWjrV6JArgp3jRxfdcxpX0UmgZ2/OCyeXwtkpwSdH4czlNNb2wwnFeLxEiJEQeXtJtxMJQ/aJiCWDSuV4XGccZCOR5qN4sG5dI3rCwEcqjITmsZS0dMmb/zDW19NEtQOQ++1ycrO31QpCcesK3U3n8o0NJ9KBUyK+zpXNPuCGILdWw8IPLJmpcXKZDT52WyJ89LymFQRWC0tIqcpGkqs5ZnMVtl432fg4UbPsIYE8DrNIcIh0DkeOVQ0H3lP8+W0Td+aubBVr7JJB6ucOApD7plnCRDXiVFLTDbcnXmtUNP8hwnWzN44z6/gXD8WNMp2zq8IqsTaEXJaTq/u1/cgDyHFaWDWCpUt8E9pD2WFLGxus/kGteNscQCwBI4ZJqJgdXY77MxrQGiuacEsAcvutmcvITbV2ViJs8KPROGvJwJRp/Dv5aKoHacSth09XOTkxK5gyMNEy/A7TmiyrWOuV4uSEvCLD0oYKiYthWaoKbauAp4gQZCyTQBbIxZD1JCKmKlIRsaFg6mpeEDYlrKQQcpYMyHCSJ8emiZTLeyttHuLXF15s52ILpOyeyQw6slG1mbWwnUhXk4ibGiLP98iJglDeFCo0z2vaCJF1VnK0YWFZCLxBygLt2InwiSfDZKw2eRU2ztTaREryQjI4liNjgSvO6SOsBCvHAUUEtKxiLMkmOnLYky+cZvKvUdp7OXsJubnYyz3rX2Z/cm68lMb5EqXWQ87NW2GxdcgZ4FbRLhFOjmgpf65Q4XYO2ul8Sc3WvE1pQpM4x83KgIGcDK+VTCaDRcIikRzW15GcxkotTAvnKZ1sJpsx2VlyHDu5lBzY751nl4R0czOzt5q757IDTqjI6+SNCoKLnIIbajzTJ5fmQR0np4MOVfKZFNMyTo545NCWJfP5DOMsnSPni8HI2efJ+ZI5JXe5nYsSur84ewm7mdkFIiaZ74x0A5qu4iVqRjnjdnGNRNyMGh4bE05OddmMMicHxilJWLc7Rw7XgTtSq0yjNtFRcDy8t8axtnBZxAlF8zw57K28SnFZ98kFyb5Qmr8tXYauddDU6n80zpDDB9ikotNw3VNu4EbMocF55PA+VnxyRWbVWTBxlpyBkFQlxf0u8wmqVeEeAg6R1FTV0ldzvh72koOFtbQsqUqirtIrkcMJzv2FpZnZmYHg5qZm3x401UTSNRuMHPOxDRdrWeI9AXDDjRRqq2q4YOQ8OdVCc8nJGbxH9SOn8Pn9Da5zapItuV1RCQ9ESF+dO41KBPlq5Fg7aX/hZWxmEDv87uDYk32ilzMFt1qtupt5CIYbaQkyc9PpDu+mVw1FkcLGv2fJ8YkHWufdr8iiN7HjIRzYpvF+amCQXNBMLEwCt4HoalqSpW/EyrBIby2Ff4mNbg8BvnUNg7wSt4VOgs+v5YOTw68oaEabB4f3u7+c5Cy5qdbCflTVDdu2jRWpXG1MwyWnhUgkeQqutuwfbzhyVC2Wi7qXVkp2sYhFJkRJpzWiFItFyLK0YrGExa3FYllmFQ4lUaKJYpGNMEhiSaTKBq/sJ7ixJMp4XClRhhZsL4hsVsrlBLMrkNYlDIWldUaxaF+BnBfqS82d20/ux2Kzs+zLwL1ghX390twM+47+V180/T1KLuQPRM51BXqRpOF51GE7a/+Sk4GteyaZiZTGZBbr8x11QE4/8EB96gWC7tjc2zlYuLX4bKmFBE8l1nr57JvFQ/xpCO9SE66LY0jrbocceNrRf11NCMkItUIB7WEp7BGuTC4a5SWjktTc29958e5gwZN3717sN5tNUCWJcn3CmkCzWlO6Mv1GZOUTTk9dIDa39xvp0Ee4Krk+B8CKqtNv3WOv3ISxOkkzAT4i55Nz8mOhcSB6OpuJ20PMVQ5NDkubKf60g3cMdpwu4w9GVc1WwcsycmYecolhkq7xkaHJ9Tf03SutVfAQTgYndBw3QaRsdkRlJMPJCC5hSJ3rK13ksErOadgQDkciZhrcWmZtVR7lua5P+pKj0snDh0fD/vIbBpl5E1QNDLG0vtFI4GC1ySpwhj70JxEaSHp3UT/cufO8PfSplTqAc2w231HEkvgs9trh0/1PI8HAnemt6tO7d98PTU6pADgTgt+VVBGwgbPYYEmtmbkRbiIUufaHO9vvHw13XqJVnEgDNE4i2TWnDDlOyksnImZqtOgC3uPHkd5LUf/33/9+MKTOaTUA1zCwBlyrm2bRQnAeOjc1orovLmNETlLbzehwYau4ycGxmm69YiY3cY7HK3GNOPVRat0YkSMsMR5muHvZaUQakWW8KYyMlZTZmYZgY59m57uURiBjRC76+OTkpNn/MgOJkWxMs67KyUXJSt3tIQfoRtdhx4gc+NbtYXyrYYLG1TQ+KsN+FpFYdTPSM99q1kamdeNE7sPW1vuwURclNoJrLHvDWV7Ya6V6p2QjZmFU6MaJ3BDxHCVpF5xDYbn38QvQulTPlCy4iYg2BK7uU44Ruf+8f/80bG9NVyPgHM5BoUTOuD3kkmZNDHmOM4ceH3LRZrsdLiqxiqsNcA79KjExjXW7wOHwiTMSdONELopjliHycq3umg1WUNjvBomVc6d7jJ0TGUVB/xiRI4+Ojx9d+jNd58Wo4bMOOHPT/w6xw/Y42IjphCx37Tnu+JBrP71z5y9Xz1uVAgt33figBpSouWqvmzAzIf5CZw87NuSo+ucQUQkl+OANeIeGPagJzvD0oANT1xjewY4POYjnwkQltsPT+cTA/sd+vzDndpOLuOFnoHwZI3LtB+/f/3pVnVMxp480qrnBTVgiRuPVrmwiMsTcnS9jRE5S24/UM/bnMjvO5hoiZiR96eOqUrHbTYzgcbkxIoeqAcrhhyWUdJ7HpgN/ABhzVcfM+cUeF95owvUfqJs2U8OPrY8ROenx8fGxjKMczTZCjLbbTYjv2nwav6+oKSfi1u2AEUaxUxpmDnQnwWWMyLX/79tvvz0h0oMPHz6ckOgv799/OIqSE1h6OOiRmXjVbJQDFrhAo5LrNBxU0kT4nwoeR3LgW7fuHsPb9tado2j06d2t7QeEPLxz986Xg260WM3r575iYeCdYjk0eBMntTzKSeNxIPeUkZMA4PZRVPoV3h5S8nB7a/vrQXcqGeqgx6QG7KAbhj58FIwyTuT+8/z5d4+J9Ot37787ieLb84cSPXr+/rsHF13/SDCEkDEiR/E7JVVK5Xa7rUajstXG3wlVFQuWLrj8j03oglOPCzluzKLUi/rZAns/33QcZIzIIbQo8eZfqEewf8txkGvkdtGTJDyAG7aW/KPKeJK7CTIhF1Ym5MLKhFxYmZALKxNyYeWayV3r6a8oE3JhZUIurEzIhZUJubAyIRdWJuTCyoRcWJmQCysTcmFlQi6sTMiFlQm5sDJO5P4fyHlARAvTlekAAAAASUVORK5CYII=;" parent="1" vertex="1">
          <mxGeometry x="100" y="526" width="180" height="92.59" as="geometry" />
        </mxCell>
        <mxCell id="MLm6s_UeEW4FJjLo-dCS-34" value="" style="endArrow=classic;html=1;rounded=0;" parent="1" edge="1">
          <mxGeometry width="50" height="50" relative="1" as="geometry">
            <mxPoint x="480" y="960" as="sourcePoint" />
            <mxPoint x="190" y="860" as="targetPoint" />
            <Array as="points">
              <mxPoint x="190" y="960" />
            </Array>
          </mxGeometry>
        </mxCell>
        <mxCell id="MLm6s_UeEW4FJjLo-dCS-35" value="" style="endArrow=classic;html=1;rounded=0;" parent="1" edge="1">
          <mxGeometry width="50" height="50" relative="1" as="geometry">
            <mxPoint x="210" y="870" as="sourcePoint" />
            <mxPoint x="480" y="940" as="targetPoint" />
            <Array as="points">
              <mxPoint x="210" y="940" />
            </Array>
          </mxGeometry>
        </mxCell>
        <mxCell id="MLm6s_UeEW4FJjLo-dCS-39" value="" style="endArrow=classic;html=1;rounded=0;" parent="1" edge="1">
          <mxGeometry relative="1" as="geometry">
            <mxPoint x="568" y="640" as="sourcePoint" />
            <mxPoint x="568" y="750" as="targetPoint" />
          </mxGeometry>
        </mxCell>
        <mxCell id="MLm6s_UeEW4FJjLo-dCS-40" value="&lt;font style=&quot;font-size: 16px;&quot;&gt;Registrazione modello&lt;/font&gt;" style="edgeLabel;resizable=0;html=1;;align=center;verticalAlign=middle;" parent="MLm6s_UeEW4FJjLo-dCS-39" connectable="0" vertex="1">
          <mxGeometry relative="1" as="geometry" />
        </mxCell>
        <mxCell id="MLm6s_UeEW4FJjLo-dCS-41" value="&lt;font style=&quot;font-size: 16px;&quot;&gt;Richiesta HTTP&lt;/font&gt;" style="text;html=1;align=center;verticalAlign=middle;resizable=0;points=[];autosize=1;strokeColor=none;fillColor=none;" parent="1" vertex="1">
          <mxGeometry x="270" y="970" width="140" height="30" as="geometry" />
        </mxCell>
        <mxCell id="MLm6s_UeEW4FJjLo-dCS-42" value="&lt;font style=&quot;font-size: 16px;&quot;&gt;Invio predizioni&lt;/font&gt;" style="text;html=1;align=center;verticalAlign=middle;resizable=0;points=[];autosize=1;strokeColor=none;fillColor=none;" parent="1" vertex="1">
          <mxGeometry x="275" y="900" width="130" height="30" as="geometry" />
        </mxCell>
        <mxCell id="2ScIHshcnl9w5QlnCLES-4" style="edgeStyle=orthogonalEdgeStyle;rounded=0;orthogonalLoop=1;jettySize=auto;html=1;" edge="1" parent="1" source="2ScIHshcnl9w5QlnCLES-1" target="MLm6s_UeEW4FJjLo-dCS-8">
          <mxGeometry relative="1" as="geometry" />
        </mxCell>
        <mxCell id="2ScIHshcnl9w5QlnCLES-1" value="&lt;font style=&quot;font-size: 16px;&quot;&gt;Data Preprocessing&lt;/font&gt;" style="text;html=1;align=center;verticalAlign=middle;resizable=0;points=[];autosize=1;strokeColor=none;fillColor=none;" vertex="1" parent="1">
          <mxGeometry x="620" y="526" width="160" height="30" as="geometry" />
        </mxCell>
      </root>
    </mxGraphModel>
  </diagram>
</mxfile>
